<svg width="330" height="61" viewBox="0 0 330 61" fill="none" xmlns="http://www.w3.org/2000/svg">
        <path d="M190.644 36.3107V7.78121H198.134V53.2984L169.949 26.2364V52.6431H162.458V7.65944L190.644 36.3107Z" fill="#001B41"></path>
        <path d="M98.4742 7.741C100.702 7.67177 102.919 8.06687 104.983 8.90096C107.047 9.73512 108.912 10.9896 110.458 12.5836C111.739 13.8907 112.816 15.3803 113.653 17.0031L107.448 20.3901C106.878 19.2951 106.163 18.2806 105.322 17.3741C104.469 16.4485 103.451 15.6874 102.319 15.1295C101.077 14.5515 99.7167 14.266 98.3452 14.2947C96.2342 14.2947 94.6759 14.7607 93.671 15.6925C93.2042 16.1011 92.83 16.6035 92.5732 17.1663C92.3164 17.7291 92.1827 18.3398 92.1812 18.9577C92.1739 20.0557 92.552 21.1223 93.2505 21.9737C94.1851 23.0192 95.327 23.862 96.6044 24.45C98.5005 25.397 100.463 26.2071 102.476 26.8741C103.864 27.354 105.213 27.9356 106.514 28.6141C107.868 29.3202 109.117 30.2107 110.224 31.2591C111.344 32.314 112.255 33.5693 112.906 34.9593C113.605 36.5245 113.946 38.224 113.905 39.9356C113.936 41.831 113.516 43.7068 112.678 45.4103C111.882 46.9968 110.735 48.3846 109.324 49.4702C107.877 50.5868 106.249 51.4501 104.51 52.0223C102.713 52.6275 100.827 52.933 98.9295 52.9268C96.3823 52.9513 93.8597 52.4311 91.533 51.4015C89.3264 50.4254 87.3227 49.0485 85.6258 47.3417C84.0088 45.7314 82.6582 43.8778 81.6237 41.8494L87.3084 38.0563C88.2255 39.6152 89.296 41.0802 90.5043 42.4294C91.5659 43.6247 92.8469 44.6088 94.2787 45.3293C95.7332 46.033 97.3351 46.3845 98.9529 46.3556C100.764 46.4339 102.543 45.864 103.966 44.7493C104.587 44.2465 105.085 43.6092 105.42 42.8865C105.755 42.1638 105.919 41.3744 105.9 40.579C105.971 39.1801 105.535 37.8024 104.673 36.6936C103.738 35.6311 102.582 34.7822 101.284 34.2054C99.6545 33.445 97.9852 32.771 96.2831 32.1868C95.0066 31.7495 93.756 31.2402 92.5378 30.6616C91.1348 30.0055 89.8132 29.1898 88.5997 28.2312C87.3353 27.2444 86.2808 26.0183 85.4974 24.6239C84.6389 23.0296 84.2155 21.2399 84.2701 19.4329C84.229 17.2445 84.8854 15.0991 86.1456 13.3029C87.4342 11.511 89.1836 10.0947 91.2112 9.20228C93.4961 8.1964 95.975 7.69788 98.4742 7.741Z" fill="#001B41"></path>
        <path fill-rule="evenodd" clip-rule="evenodd" d="M306.757 7.78121C310.976 7.68965 315.15 8.64908 318.899 10.5712C322.315 12.3567 325.152 15.0674 327.079 18.3891C329.026 21.7414 330 25.6837 330 30.2153C330 34.7467 329.026 38.6868 327.079 42.0352C325.154 45.3582 322.317 48.0694 318.899 49.853C315.15 51.7752 310.976 52.7346 306.757 52.6431H292.168V7.78121H306.757ZM299.915 45.5321H306.983C308.955 45.5096 310.913 45.1852 312.787 44.5698C314.62 43.9593 316.303 42.971 317.724 41.6699C319.165 40.3267 320.29 38.685 321.02 36.8618C321.843 34.7373 322.24 32.4733 322.188 30.1977C322.24 27.9201 321.843 25.6544 321.02 23.5279C320.277 21.7092 319.14 20.0755 317.689 18.7431C316.268 17.4422 314.585 16.454 312.752 15.8432C310.888 15.2368 308.941 14.9182 306.98 14.8979H299.915V45.5321Z" fill="#001B41"></path>
        <path d="M285.168 14.4453H265.157V25.3432H283.883V31.8793H265.157V45.9789H285.168V52.6431H257.696V7.78121H285.168V14.4453Z" fill="#001B41"></path>
        <path d="M137.217 27.0078L147.734 7.78121H156.458L141.091 33.7297V52.6368H133.344V33.7993L118.053 7.78121H126.7L137.217 27.0078Z" fill="#001B41"></path>
        <path fill-rule="evenodd" clip-rule="evenodd" d="M227.897 7.63056C240.482 7.63056 250.684 17.7117 250.684 30.1475C250.684 42.5832 240.482 52.6644 227.897 52.6644C215.313 52.6644 205.111 42.5832 205.111 30.1475C205.111 17.7117 215.313 7.63056 227.897 7.63056ZM227.897 15.4091C219.66 15.4091 212.982 22.0077 212.982 30.1475C212.982 38.2872 219.66 44.8858 227.897 44.8858C236.135 44.8858 242.812 38.2872 242.812 30.1475C242.812 22.0077 236.135 15.4091 227.897 15.4091Z" fill="#001B41"></path>
        <path d="M236.834 49.3639L246.127 52.869L244.84 43.767" fill="#001B41"></path>
        <path fill-rule="evenodd" clip-rule="evenodd" d="M30.587 0C47.4797 0 61.174 13.5935 61.174 30.362C61.174 47.1305 47.4797 60.724 30.587 60.724C13.6943 60.724 0 47.1305 0 30.362C0 13.5935 13.6943 0 30.587 0ZM30.587 10.4887C19.5299 10.4887 10.5664 19.3863 10.5664 30.362C10.5664 41.3378 19.5299 50.2353 30.587 50.2353C41.644 50.2353 50.6076 41.3378 50.6076 30.362C50.6076 19.3863 41.644 10.4887 30.587 10.4887Z" fill="#001B41"></path>
        <path d="M42.5832 56.2737L55.0566 61L53.329 48.7267" fill="#001B41"></path>
        <path d="M26.8218 0.30259C26.8218 0.30259 10.9147 0.302568 11.3669 16.8927C11.8248 33.6959 41.7399 35.6595 40.2424 51.2488C39.4529 59.4979 30.587 60.724 30.587 60.724C30.587 60.724 52.8321 62.1042 49.6757 43.2295C48.2318 28.3576 22.5252 26.7446 19.7306 12.2424C18.0907 3.76194 26.8218 0.30259 26.8218 0.30259Z" fill="url(#paint0_linear_1699_1462)"></path>
        <defs>
        <linearGradient id="paint0_linear_1699_1462" x1="9.88984" y1="11.9385" x2="48.8621" y2="50.4654" gradientUnits="userSpaceOnUse">
        <stop stop-color="#FFC958"></stop>
        <stop offset="0.197115" stop-color="#FF6F2F"></stop>
        <stop offset="0.5" stop-color="#FF4F00"></stop>
        <stop offset="0.798077" stop-color="#FF6F2F"></stop>
        <stop offset="1" stop-color="#FFC958"></stop>
        </linearGradient>
        </defs>
      </svg>